<svg xmlns="http://www.w3.org/2000/svg" viewBox="0 0 24 24" fill="currentColor">
  <path d="M12 2.5c-3.2 3.2-5 7.5-5 12 0 1.5.2 3 .7 4.4l2.2-2.2c-.3-.7-.4-1.4-.4-2.2 0-3.4 1.5-6.6 4-8.9V2.5zM12 2.5v3.1c2.5 2.3 4 5.5 4 8.9 0 .8-.1 1.5-.4 2.2l2.2 2.2c.5-1.4.7-2.9.7-4.4 0-4.5-1.8-8.8-5-12zM4.3 20.3l1.4 1.4L9 18.4c-.5-1.2-.7-2.5-.7-3.9h-2c0 2 .5 4 1.5 5.8zM15 18.4l3.3 3.3 1.4-1.4c1-1.8 1.5-3.8 1.5-5.8h-2c0 1.4-.2 2.7-.7 3.9zM12 8c-2.2 0-4 1.8-4 4s1.8 4 4 4 4-1.8 4-4-1.8-4-4-4zm0 6c-1.1 0-2-.9-2-2s.9-2 2-2 2 .9 2 2-.9 2-2 2z"/>
</svg>
